<svg width="136" height="32" viewBox="0 0 136 32" fill="none" xmlns="http://www.w3.org/2000/svg">
<path d="M1.2 23.9H31.3C31.9 23.9 32.5 23.4 32.5 22.7V20.6C32.5 20 32 19.4 31.3 19.4H1.2C0.6 19.4 0 19.9 0 20.6V22.8C0 23.4 0.5 23.9 1.2 23.9Z" fill="white"/>
<path d="M1.2 31.6H31.3C31.9 31.6 32.5 31.1 32.5 30.4V28.3C32.5 27.7 32 27.1 31.3 27.1H1.2C0.6 27.1 0 27.6 0 28.3V30.4C0 31.1 0.5 31.6 1.2 31.6Z" fill="white"/>
<path d="M9.8 0.4L15.4 6C15.9 6.5 16.6 6.5 17 6L22.6 0.4C20.7 0.7 18.4 0.8 16 0.8C13.7 0.7 11.6 0.6 9.8 0.4Z" fill="white"/>
<path d="M31.6 0.9L28.5 0L17.2 11.2C16.7 11.7 16 11.7 15.6 11.2L4.3 0L0.9 0.9C0.4 1 0 1.5 0 2V14C0 15.2 1 16.2 2.2 16.2H30.2C31.4 16.2 32.4 15.2 32.4 14V2C32.4 1.5 32.1 1 31.6 0.9Z" fill="white"/>
<path d="M42.8 4.5V7.6H46.5V8.8H42.8V12.7H41.4V3.4H47.1V4.5H42.8Z" fill="white"/>
<path d="M58.3 12.7H57.1C56.9 12.7 56.7 12.6 56.6 12.4L54.3 9.2C54.2 9.1 54.1 9 54.1 9C54 9 53.9 8.9 53.7 8.9H52.8V12.7H51.4V3.4H54.1C54.7 3.4 55.2 3.5 55.6 3.6C56 3.7 56.4 3.9 56.7 4.1C57 4.3 57.2 4.6 57.3 4.9C57.4 5.2 57.5 5.6 57.5 6C57.5 6.3 57.5 6.6 57.4 6.9C57.3 7.2 57.2 7.4 57 7.7C56.8 8 56.6 8.1 56.3 8.3C56 8.5 55.7 8.6 55.4 8.7C55.6 8.8 55.7 8.9 55.8 9.1L58.3 12.7ZM54 7.9C54.4 7.9 54.7 7.9 54.9 7.8C55.2 7.7 55.4 7.6 55.6 7.4C55.7 7.2 55.9 7 56 6.8C56.1 6.6 56.1 6.3 56.1 6.1C56.1 5.6 55.9 5.2 55.6 4.9C55.2 4.6 54.7 4.5 54 4.5H52.7V7.9H54Z" fill="white"/>
<path d="M69.7 12.7H68.6C68.5 12.7 68.4 12.7 68.3 12.6C68.2 12.5 68.2 12.5 68.1 12.4L67.3 10.3H63.2L62.4 12.4C62.4 12.5 62.3 12.6 62.2 12.6C62.1 12.7 62 12.7 61.9 12.7H60.9L64.6 3.4H66L69.7 12.7ZM67 9.2L65.6 5.6C65.5 5.4 65.4 5 65.3 4.7C65.3 4.9 65.2 5.1 65.2 5.2C65.2 5.4 65.1 5.5 65.1 5.6L63.7 9.2H67Z" fill="white"/>
<path d="M81 3.4V12.7H80.3C80.2 12.7 80.1 12.7 80 12.6C79.9 12.6 79.9 12.5 79.8 12.4L74.6 5.6C74.6 5.7 74.6 5.8 74.6 5.9C74.6 6 74.6 6.1 74.6 6.2V12.6H73.4V3.4H74.1C74.2 3.4 74.3 3.4 74.4 3.4C74.5 3.4 74.5 3.5 74.6 3.6L79.8 10.4C79.8 10.3 79.8 10.2 79.8 10C79.8 9.9 79.8 9.8 79.8 9.7V3.4H81Z" fill="white"/>
<path d="M92.4 10.7C92.5 10.7 92.5 10.7 92.6 10.8L93.1 11.4C92.7 11.8 92.3 12.2 91.7 12.4C91.2 12.6 90.5 12.8 89.7 12.8C89 12.8 88.4 12.7 87.9 12.5C87.4 12.3 86.9 11.9 86.5 11.5C86.1 11.1 85.8 10.6 85.6 10C85.4 9.4 85.3 8.8 85.3 8.1C85.3 7.4 85.4 6.8 85.6 6.2C85.8 5.6 86.1 5.1 86.5 4.7C86.9 4.3 87.4 4 87.9 3.7C88.5 3.5 89.1 3.4 89.7 3.4C90.4 3.4 90.9 3.5 91.5 3.7C92 3.9 92.5 4.2 92.8 4.6L92.3 5.2L92.2 5.3C92.2 5.3 92.1 5.3 92 5.3C91.9 5.3 91.8 5.3 91.7 5.2C91.6 5.1 91.4 5 91.3 4.9C91.1 4.8 90.9 4.7 90.6 4.6C90.3 4.5 90 4.5 89.6 4.5C89.1 4.5 88.7 4.6 88.3 4.7C87.9 4.9 87.6 5.1 87.3 5.4C87 5.7 86.8 6.1 86.7 6.5C86.5 6.9 86.5 7.4 86.5 8C86.5 8.6 86.6 9.1 86.7 9.5C86.9 9.9 87.1 10.3 87.4 10.6C87.7 10.9 88 11.1 88.4 11.3C88.8 11.5 89.2 11.5 89.6 11.5C89.9 11.5 90.1 11.5 90.3 11.5C90.5 11.5 90.7 11.4 90.9 11.4C91.1 11.3 91.2 11.3 91.4 11.2C91.6 11.1 91.7 11 91.9 10.8L92 10.7C92.3 10.7 92.3 10.7 92.4 10.7Z" fill="white"/>
<path d="M102.8 11.6V12.7H97.1V3.4H102.8V4.5H98.4V7.4H101.9V8.5H98.4V11.5H102.8V11.6Z" fill="white"/>
<path d="M45.2 27.1C45.6 27.1 45.9 27 46.2 26.9C46.5 26.8 46.7 26.6 46.9 26.4C47.1 26.2 47.3 25.9 47.4 25.6C47.5 25.3 47.6 24.9 47.6 24.6V19H48.9V24.6C48.9 25.1 48.8 25.6 48.6 26.1C48.4 26.6 48.2 27 47.9 27.3C47.6 27.6 47.2 27.9 46.7 28.1C46.2 28.3 45.7 28.4 45.1 28.4C44.5 28.4 44 28.3 43.5 28.1C43 27.9 42.6 27.6 42.3 27.3C42 27 41.7 26.6 41.6 26.1C41.4 25.6 41.3 25.1 41.3 24.6V19H42.7V24.6C42.7 25 42.8 25.3 42.9 25.6C43 25.9 43.2 26.2 43.4 26.4C43.6 26.6 43.8 26.8 44.1 26.9C44.5 27 44.8 27.1 45.2 27.1Z" fill="white"/>
<path d="M61.3 18.9V28.2H60.6C60.5 28.2 60.4 28.2 60.3 28.1C60.2 28.1 60.2 28 60.1 27.9L54.9 21.1C54.9 21.2 54.9 21.3 54.9 21.4C54.9 21.5 54.9 21.6 54.9 21.7V28.1H53.7V18.8H54.4C54.5 18.8 54.6 18.8 54.7 18.8C54.8 18.8 54.8 18.9 54.9 19L60.1 25.8C60.1 25.7 60.1 25.6 60.1 25.4C60.1 25.3 60.1 25.2 60.1 25.1V18.8H61.3V18.9Z" fill="white"/>
<path d="M67.5 28.2H66.1V18.9H67.5V28.2Z" fill="white"/>
<path d="M73.8 20V23.1H77.5V24.2H73.8V28.1H72.4V18.8H78.1V19.9H73.8V20Z" fill="white"/>
<path d="M90.8 23.5C90.8 24.2 90.7 24.8 90.5 25.4C90.3 26 90 26.5 89.6 26.9C89.2 27.3 88.7 27.6 88.1 27.9C87.5 28.1 86.9 28.2 86.2 28.2C85.5 28.2 84.9 28.1 84.3 27.9C83.7 27.7 83.3 27.3 82.8 26.9C82.4 26.5 82.1 26 81.9 25.4C81.7 24.8 81.6 24.2 81.6 23.5C81.6 22.8 81.7 22.2 81.9 21.6C82.1 21 82.4 20.5 82.8 20.1C83.2 19.7 83.7 19.4 84.3 19.1C84.9 18.9 85.5 18.7 86.2 18.7C86.9 18.7 87.5 18.8 88.1 19.1C88.7 19.3 89.1 19.7 89.6 20.1C90 20.5 90.3 21 90.5 21.6C90.7 22.2 90.8 22.9 90.8 23.5ZM89.4 23.5C89.4 22.9 89.3 22.5 89.2 22C89 21.6 88.8 21.2 88.6 20.9C88.3 20.6 88 20.4 87.6 20.2C87.2 20 86.8 20 86.3 20C85.8 20 85.4 20.1 85 20.2C84.6 20.4 84.3 20.6 84 20.9C83.7 21.2 83.5 21.6 83.4 22C83.2 22.4 83.2 22.9 83.2 23.5C83.2 24.1 83.3 24.6 83.4 25C83.6 25.4 83.8 25.8 84 26.1C84.3 26.4 84.6 26.6 85 26.8C85.4 27 85.8 27 86.3 27C86.8 27 87.2 26.9 87.6 26.8C88 26.6 88.3 26.4 88.6 26.1C88.9 25.8 89.1 25.4 89.2 25C89.3 24.6 89.4 24.1 89.4 23.5Z" fill="white"/>
<path d="M102.1 28.2H100.9C100.7 28.2 100.5 28.1 100.4 27.9L98.1 24.7C98 24.6 97.9 24.5 97.9 24.5C97.8 24.5 97.7 24.4 97.5 24.4H96.6V28.2H95.2V18.9H97.9C98.5 18.9 99 19 99.4 19.1C99.8 19.2 100.2 19.4 100.5 19.6C100.8 19.8 101 20.1 101.1 20.4C101.2 20.7 101.3 21.1 101.3 21.5C101.3 21.8 101.3 22.1 101.2 22.4C101.1 22.7 101 22.9 100.8 23.2C100.6 23.4 100.4 23.6 100.1 23.8C99.8 24 99.5 24.1 99.2 24.2C99.4 24.3 99.5 24.4 99.6 24.6L102.1 28.2ZM97.7 23.4C98.1 23.4 98.4 23.4 98.6 23.3C98.9 23.2 99.1 23.1 99.3 22.9C99.5 22.7 99.6 22.6 99.7 22.3C99.8 22.1 99.8 21.8 99.8 21.6C99.8 21.1 99.6 20.7 99.3 20.4C98.9 20.1 98.4 20 97.7 20H96.4V23.4H97.7Z" fill="white"/>
<path d="M115.6 18.9V28.2H114.4V21.6C114.4 21.5 114.4 21.4 114.4 21.3C114.4 21.2 114.4 21.1 114.4 21L111.3 26.7C111.2 26.9 111 27 110.8 27H110.6C110.4 27 110.2 26.9 110.1 26.7L107 21C107 21.2 107 21.5 107 21.7V28.3H105.8V19H106.8C106.9 19 107 19 107.1 19C107.2 19 107.2 19.1 107.3 19.2L110.4 24.7C110.5 24.8 110.5 24.9 110.6 25.1C110.7 25.2 110.7 25.3 110.7 25.5C110.8 25.2 110.9 25 111 24.8L114 19.3C114.1 19.2 114.1 19.1 114.2 19.1C114.3 19.1 114.4 19.1 114.5 19.1H115.6V18.9Z" fill="white"/>
<path d="M126.2 27.1V28.2H120.5V18.9H126.2V20H121.8V22.9H125.3V24H121.8V27H126.2V27.1Z" fill="white"/>
<path d="M135.3 20.4C135.3 20.5 135.2 20.5 135.2 20.6C135.2 20.7 135.1 20.7 135 20.7C134.9 20.7 134.8 20.7 134.7 20.6C134.6 20.5 134.5 20.4 134.3 20.4C134.2 20.3 134 20.2 133.8 20.2C133.6 20.1 133.3 20.1 133.1 20.1C132.8 20.1 132.6 20.1 132.4 20.2C132.2 20.3 132 20.4 131.9 20.5C131.8 20.6 131.7 20.8 131.6 20.9C131.5 21.1 131.5 21.2 131.5 21.4C131.5 21.6 131.6 21.9 131.7 22C131.8 22.2 132 22.3 132.2 22.4C132.4 22.5 132.6 22.6 132.9 22.7C133.2 22.8 133.4 22.9 133.7 23C134 23.1 134.2 23.2 134.5 23.3C134.8 23.4 135 23.6 135.2 23.8C135.4 24 135.6 24.2 135.7 24.5C135.8 24.8 135.9 25.1 135.9 25.5C135.9 25.9 135.8 26.3 135.7 26.6C135.6 26.9 135.4 27.3 135.1 27.5C134.8 27.8 134.5 28 134.1 28.1C133.7 28.3 133.3 28.3 132.8 28.3C132.5 28.3 132.2 28.3 131.9 28.2C131.6 28.1 131.4 28.1 131.1 28C130.9 27.9 130.6 27.8 130.4 27.6C130.2 27.5 130 27.3 129.8 27.1L130.2 26.4C130.2 26.3 130.3 26.3 130.3 26.3C130.4 26.3 130.4 26.2 130.5 26.2C130.6 26.2 130.7 26.2 130.8 26.3C130.9 26.4 131.1 26.5 131.2 26.6C131.4 26.7 131.6 26.8 131.8 26.9C132 27 132.3 27 132.7 27C133 27 133.2 27 133.5 26.9C133.7 26.8 133.9 26.7 134.1 26.6C134.3 26.5 134.4 26.3 134.5 26.1C134.6 25.9 134.6 25.7 134.6 25.4C134.6 25.1 134.5 24.9 134.4 24.7C134.3 24.5 134.1 24.4 133.9 24.3C133.7 24.2 133.5 24.1 133.2 24C132.9 23.9 132.7 23.8 132.4 23.7C132.1 23.6 131.9 23.5 131.6 23.4C131.3 23.3 131.1 23.1 130.9 22.9C130.7 22.7 130.5 22.5 130.4 22.2C130.3 21.9 130.2 21.6 130.2 21.2C130.2 20.9 130.3 20.5 130.4 20.2C130.5 19.9 130.7 19.6 131 19.4C131.2 19.2 131.6 19 131.9 18.8C132.3 18.7 132.7 18.6 133.1 18.6C133.6 18.6 134.1 18.7 134.5 18.8C134.9 19 135.3 19.2 135.6 19.5L135.3 20.4Z" fill="white"/>
</svg>
